<svg width="256" height="190" viewBox="0 0 256 190" fill="none" xmlns="http://www.w3.org/2000/svg">
<path d="M64 4H192C207.198 4 218.194 4.00827 226.579 5.13574C234.849 6.24778 239.98 8.38191 243.799 12.2012C247.618 16.0204 249.752 21.1506 250.864 29.4209C251.992 37.8063 252 48.8022 252 64V96C252 111.198 251.992 122.194 250.864 130.579C249.752 138.849 247.618 143.98 243.799 147.799C242.025 149.572 240.001 150.951 237.574 152.038L234.355 153.479L235.382 156.854L241.472 176.863L219.169 156.729L217.951 155.629L216.312 155.701C209.578 155.997 201.613 156 192 156H64C48.8022 156 37.8063 155.992 29.4209 154.864C21.1506 153.752 16.0204 151.618 12.2012 147.799C8.38191 143.98 6.24778 138.849 5.13574 130.579C4.00827 122.194 4 111.198 4 96V64C4 48.8022 4.00827 37.8063 5.13574 29.4209C6.24778 21.1506 8.38191 16.0204 12.2012 12.2012C16.0204 8.38191 21.1506 6.24778 29.4209 5.13574C37.8063 4.00827 48.8022 4 64 4Z" fill="url(#paint0_linear_5_8)" stroke="#8D77FB" stroke-width="8"/>
<path d="M64 2H192C207.141 2 218.296 2.00472 226.846 3.1543C235.338 4.29616 240.96 6.53433 245.213 10.7871C249.466 15.0399 251.704 20.6622 252.846 29.1543C253.995 37.7039 254 48.8586 254 64V96C254 111.141 253.995 122.296 252.846 130.846C251.704 139.338 249.466 144.96 245.213 149.213C243.257 151.169 241.027 152.683 238.392 153.863L236.782 154.584L237.296 156.271L245.486 183.183L217.828 158.213L217.22 157.663L216.4 157.699C209.613 157.997 201.599 158 192 158H64C48.8586 158 37.7039 157.995 29.1543 156.846C20.6622 155.704 15.0399 153.466 10.7871 149.213C6.53433 144.96 4.29616 139.338 3.1543 130.846C2.00472 122.296 2 111.141 2 96V64C2 48.8586 2.00472 37.7039 3.1543 29.1543C4.29616 20.6622 6.53433 15.0399 10.7871 10.7871C15.0399 6.53433 20.6622 4.29616 29.1543 3.1543C37.7039 2.00472 48.8586 2 64 2Z" stroke="#B9AAFF" stroke-width="4"/>
<g filter="url(#filter0_d_5_8)">
<path d="M57.5531 74C59.8111 74 60.9401 74 61.6889 73.6824C62.3911 73.3845 62.6476 73.198 63.1476 72.622C63.6807 72.0078 64.1623 70.5231 65.1254 67.5536C66.1345 64.4425 67.8695 61.5819 70.2253 59.226C74.1437 55.3076 79.4585 53.1062 85 53.1062C90.5413 53.1062 95.8556 55.3071 99.774 59.2253C102.13 61.5813 103.865 64.4422 104.875 67.5536C105.838 70.5231 106.319 72.0078 106.852 72.622C107.352 73.198 107.609 73.3845 108.311 73.6824C109.06 74 110.189 74 112.447 74C114.777 74 115.942 74 116.92 73.383C117.565 72.9761 118.239 72.1578 118.515 71.4467C118.933 70.3687 118.745 69.4082 118.371 67.4871C117.084 60.894 113.861 54.7772 109.042 49.9582C102.666 43.5819 94.0174 40 85 40C75.9826 40 67.3344 43.5819 60.9582 49.9582C56.1391 54.7772 52.9162 60.894 51.6294 67.4871C51.2545 69.4082 51.067 70.3687 51.4853 71.4467C51.7611 72.1578 52.4351 72.9761 53.0802 73.383C54.0582 74 55.2231 74 57.5531 74Z" fill="white"/>
<path d="M112.447 76C113.569 76 114.57 76.0029 115.408 75.9111C116.301 75.8134 117.16 75.5964 117.987 75.0742C118.995 74.4383 119.948 73.2807 120.379 72.1699C121.047 70.4466 120.676 68.8584 120.334 67.1045C118.972 60.1237 115.559 53.6465 110.456 48.5439C103.705 41.7926 94.5477 38 85 38C75.4523 38 66.2953 41.7926 59.5439 48.5439C54.4414 53.6465 51.0285 60.1237 49.666 67.1045C49.3237 68.8584 48.9525 70.4466 49.6211 72.1699C50.052 73.2807 51.005 74.4383 52.0127 75.0742C52.8404 75.5964 53.6988 75.8134 54.5918 75.9111C55.43 76.0029 56.4308 76 57.5527 76C58.6565 76 59.575 76.0012 60.3076 75.957C61.0335 75.9132 61.7768 75.8174 62.4697 75.5234C62.8684 75.3543 63.2721 75.1632 63.6699 74.874C64.0677 74.5848 64.3743 74.2596 64.6582 73.9326C65.1865 73.3238 65.5439 72.4832 65.8477 71.6738C66.1749 70.8018 66.553 69.6363 67.0283 68.1709C67.9408 65.3575 69.5095 62.7709 71.6396 60.6406C75.183 57.0973 79.9889 55.1064 85 55.1064C90.0109 55.1064 94.8161 57.0967 98.3594 60.6396C100.49 62.7701 102.059 65.3571 102.972 68.1709C103.447 69.6363 103.825 70.8018 104.152 71.6738C104.456 72.4832 104.813 73.3238 105.342 73.9326C105.626 74.2596 105.932 74.5848 106.33 74.874C106.728 75.1632 107.132 75.3543 107.53 75.5234C108.223 75.8174 108.966 75.9132 109.692 75.957C110.425 76.0012 111.344 76 112.447 76Z" stroke="#8D77FB" stroke-width="4"/>
</g>
<g filter="url(#filter1_d_5_8)">
<path d="M142.553 74C144.811 74 145.94 74 146.689 73.6824C147.391 73.3845 147.648 73.198 148.148 72.622C148.681 72.0078 149.162 70.5231 150.125 67.5536C151.134 64.4425 152.869 61.5819 155.225 59.226C159.144 55.3076 164.459 53.1062 170 53.1062C175.541 53.1062 180.856 55.3071 184.774 59.2253C187.13 61.5813 188.865 64.4422 189.875 67.5536C190.838 70.5231 191.319 72.0078 191.852 72.622C192.352 73.198 192.609 73.3845 193.311 73.6824C194.06 74 195.189 74 197.447 74C199.777 74 200.942 74 201.92 73.383C202.565 72.9761 203.239 72.1578 203.515 71.4467C203.933 70.3687 203.745 69.4082 203.371 67.4871C202.084 60.894 198.861 54.7772 194.042 49.9582C187.666 43.5819 179.017 40 170 40C160.983 40 152.334 43.5819 145.958 49.9582C141.139 54.7772 137.916 60.894 136.629 67.4871C136.255 69.4082 136.067 70.3687 136.485 71.4467C136.761 72.1578 137.435 72.9761 138.08 73.383C139.058 74 140.223 74 142.553 74Z" fill="white"/>
<path d="M197.447 76C198.569 76 199.57 76.0029 200.408 75.9111C201.301 75.8134 202.16 75.5964 202.987 75.0742C203.995 74.4383 204.948 73.2807 205.379 72.1699C206.047 70.4466 205.676 68.8584 205.334 67.1045C203.972 60.1237 200.559 53.6465 195.456 48.5439C188.705 41.7926 179.548 38 170 38C160.452 38 151.295 41.7926 144.544 48.5439C139.441 53.6465 136.028 60.1237 134.666 67.1045C134.324 68.8584 133.953 70.4466 134.621 72.1699C135.052 73.2807 136.005 74.4383 137.013 75.0742C137.84 75.5964 138.699 75.8134 139.592 75.9111C140.43 76.0029 141.431 76 142.553 76C143.656 76 144.575 76.0012 145.308 75.957C146.034 75.9132 146.777 75.8174 147.47 75.5234C147.868 75.3543 148.272 75.1632 148.67 74.874C149.068 74.5848 149.374 74.2596 149.658 73.9326C150.187 73.3238 150.544 72.4832 150.848 71.6738C151.175 70.8018 151.553 69.6363 152.028 68.1709C152.941 65.3575 154.509 62.7709 156.64 60.6406C160.183 57.0973 164.989 55.1064 170 55.1064C175.011 55.1064 179.816 57.0967 183.359 60.6396C185.49 62.7701 187.059 65.3571 187.972 68.1709C188.447 69.6363 188.825 70.8018 189.152 71.6738C189.456 72.4832 189.813 73.3238 190.342 73.9326C190.626 74.2596 190.932 74.5848 191.33 74.874C191.728 75.1632 192.132 75.3543 192.53 75.5234C193.223 75.8174 193.966 75.9132 194.692 75.957C195.425 76.0012 196.344 76 197.447 76Z" stroke="#8D77FB" stroke-width="4"/>
</g>
<defs>
<filter id="filter0_d_5_8" x="17.9512" y="6.7" width="134.098" height="100.6" filterUnits="userSpaceOnUse" color-interpolation-filters="sRGB">
<feFlood flood-opacity="0" result="BackgroundImageFix"/>
<feColorMatrix in="SourceAlpha" type="matrix" values="0 0 0 0 0 0 0 0 0 0 0 0 0 0 0 0 0 0 127 0" result="hardAlpha"/>
<feOffset/>
<feGaussianBlur stdDeviation="14.65"/>
<feComposite in2="hardAlpha" operator="out"/>
<feColorMatrix type="matrix" values="0 0 0 0 1 0 0 0 0 1 0 0 0 0 1 0 0 0 0.25 0"/>
<feBlend mode="normal" in2="BackgroundImageFix" result="effect1_dropShadow_5_8"/>
<feBlend mode="normal" in="SourceGraphic" in2="effect1_dropShadow_5_8" result="shape"/>
</filter>
<filter id="filter1_d_5_8" x="102.951" y="6.7" width="134.098" height="100.6" filterUnits="userSpaceOnUse" color-interpolation-filters="sRGB">
<feFlood flood-opacity="0" result="BackgroundImageFix"/>
<feColorMatrix in="SourceAlpha" type="matrix" values="0 0 0 0 0 0 0 0 0 0 0 0 0 0 0 0 0 0 127 0" result="hardAlpha"/>
<feOffset/>
<feGaussianBlur stdDeviation="14.65"/>
<feComposite in2="hardAlpha" operator="out"/>
<feColorMatrix type="matrix" values="0 0 0 0 1 0 0 0 0 1 0 0 0 0 1 0 0 0 0.25 0"/>
<feBlend mode="normal" in2="BackgroundImageFix" result="effect1_dropShadow_5_8"/>
<feBlend mode="normal" in="SourceGraphic" in2="effect1_dropShadow_5_8" result="shape"/>
</filter>
<linearGradient id="paint0_linear_5_8" x1="128" y1="0" x2="128" y2="189.5" gradientUnits="userSpaceOnUse">
<stop stop-color="#7B60FF"/>
<stop offset="1" stop-color="#4A3A99"/>
</linearGradient>
</defs>
</svg>
